# xmcd
#
# Track frame offsets:
#	150
#	16064
#	36441
#	57882
#	77439
#	105712
#	125495
#	139606
#	163512
#	177519
#	195253
#	208247
#	227321
#	253599
#	271682
#
# Disc length: 3979 seconds
#
# Revision: 0
# Processed by: cddbd v1.5.2PL0 Copyright (c) Steve Scherf et al.
# Submitted via: EasyCDDAExtractor 12.1.0.1
#
DISCID=bd0f890f
DTITLE=Michael Seida - Leben
DYEAR=2010
DGENRE=Pop
TTITLE0=Hob i im Lebn ned ghobt
TTITLE1=I steh im Stau
TTITLE2=Gengan Wind
TTITLE3=Waun der Tog ins Lebn kummt
TTITLE4=Mary don't you weep
TTITLE5=Jesse James
TTITLE6=Shenandoah
TTITLE7=Long black Veil
TTITLE8=Des Laund is mei Laund
TTITLE9=Unsan Vodan
TTITLE10=This little Light of mine
TTITLE11=Sag mir, wo die Blumen sind
TTITLE12=I steh im Stau (long Version)
TTITLE13=Des Laund is mei Laund (long Version)
TTITLE14=Waun der Tog ins Lebn kummt (long Version)
EXTD=
EXTT0=
EXTT1=
EXTT2=
EXTT3=
EXTT4=
EXTT5=
EXTT6=
EXTT7=
EXTT8=
EXTT9=
EXTT10=
EXTT11=
EXTT12=
EXTT13=
EXTT14=
PLAYORDER=
